<?xml version="1.0" encoding="iso-8859-1"?>
<!-- Generator: Adobe Illustrator 19.0.0, SVG Export Plug-In . SVG Version: 6.00 Build 0)  -->
<svg version="1.1" id="Capa_1" xmlns="http://www.w3.org/2000/svg" xmlns:xlink="http://www.w3.org/1999/xlink" x="0px" y="0px"
	 viewBox="0 0 472.619 472.619" style="enable-background:new 0 0 472.619 472.619;" xml:space="preserve">
<g>
	<g>
		<path d="M236.309,0C174.5,0,124.213,50.287,124.213,112.097S174.5,224.193,236.309,224.193s112.096-50.286,112.096-112.096
			S298.119,0,236.309,0z M236.309,204.5c-50.952,0-92.404-41.452-92.404-92.404c0-50.952,41.452-92.404,92.404-92.404
			c50.952,0,92.404,41.452,92.404,92.404C328.713,163.048,287.261,204.5,236.309,204.5z" fill="#2f2f2f"/>
	</g>
</g>
<g>
	<g>
		<path d="M236.309,268.003c-107.396,0-194.769,87.373-194.769,194.769c0,5.438,4.409,9.846,9.846,9.846h369.846
			c5.438,0,9.846-4.409,9.846-9.846C431.079,355.376,343.705,268.003,236.309,268.003z M61.505,452.926
			c5.126-91.973,81.571-165.231,174.804-165.231s169.678,73.258,174.804,165.231H61.505z" fill="#2f2f2f"/>
	</g>
</g>
<g>
</g>
<g>
</g>
<g>
</g>
<g>
</g>
<g>
</g>
<g>
</g>
<g>
</g>
<g>
</g>
<g>
</g>
<g>
</g>
<g>
</g>
<g>
</g>
<g>
</g>
<g>
</g>
<g>
</g>
</svg>
